<svg width="231" height="101" viewBox="0 0 231 101" fill="none" xmlns="http://www.w3.org/2000/svg">
<path d="M178.133 100.783C149.412 100.783 130.795 82.5324 112.791 64.8826L98.4217 50.7914L98.4236 50.7896C81.944 34.7787 70.3012 25.095 53.7701 25.095C45.9075 25.095 38.7109 27.8162 33.5052 32.7579C28.4987 37.5098 25.7419 43.9116 25.7419 50.784C25.7419 57.6559 28.4987 64.0583 33.5052 68.8102C38.7109 73.7513 45.9075 76.4719 53.7701 76.4719C60.9038 76.4719 67.3271 74.7191 74.0607 70.8649L68.1796 65.0977H55.2509C48.7101 65.0977 43.3889 59.8794 43.3889 53.4653V40.7868H71.684C76.0459 40.7868 80.1465 42.4527 83.2312 45.4777L103.529 65.3823C105.508 67.3236 106.59 70.011 106.497 72.7563C106.404 75.4936 105.147 78.0972 103.049 79.898C81.6041 98.3024 66.1039 100.784 53.7701 100.784C24.1518 100.784 0.951172 78.8217 0.951172 50.7847C0.951172 22.7477 24.1518 0.784668 53.7701 0.784668C82.4905 0.784668 101.107 19.0357 119.112 36.6855L133.81 51.0995C150.116 66.9194 161.713 76.4731 178.132 76.4731C185.995 76.4731 193.192 73.7519 198.398 68.8108C203.403 64.0589 206.16 57.6571 206.16 50.7847C206.16 43.9122 203.403 37.5104 198.397 32.7585C193.192 27.8175 185.995 25.0962 178.132 25.0962C167.272 25.0962 158.082 29.0934 146.411 38.8935C144.288 40.6753 141.582 41.6567 138.792 41.6567C135.67 41.6567 132.736 40.4658 130.531 38.3027L120.874 28.8328L124.267 25.7369C140.687 10.7604 156.13 0.785279 178.132 0.785279C207.75 0.785279 230.951 22.7476 230.951 50.7853C230.952 78.8211 207.751 100.783 178.133 100.783Z" fill="url(#paint0_linear_1765_226)"/>
<path d="M178.133 100.783C149.412 100.783 130.795 82.5324 112.791 64.8826L98.4217 50.7914L98.4236 50.7896C81.944 34.7787 70.3012 25.095 53.7701 25.095C45.9075 25.095 38.7109 27.8162 33.5052 32.7579C28.4987 37.5098 25.7419 43.9116 25.7419 50.784C25.7419 57.6559 28.4987 64.0583 33.5052 68.8102C38.7109 73.7513 45.9075 76.4719 53.7701 76.4719C60.9038 76.4719 67.3271 74.7191 74.0607 70.8649L68.1796 65.0977H55.2509C48.7101 65.0977 43.3889 59.8794 43.3889 53.4653V40.7868H71.684C76.0459 40.7868 80.1465 42.4527 83.2312 45.4777L103.529 65.3823C105.508 67.3236 106.59 70.011 106.497 72.7563C106.404 75.4936 105.147 78.0972 103.049 79.898C81.6041 98.3024 66.1039 100.784 53.7701 100.784C24.1518 100.784 0.951172 78.8217 0.951172 50.7847C0.951172 22.7477 24.1518 0.784668 53.7701 0.784668C82.4905 0.784668 101.107 19.0357 119.112 36.6855L133.81 51.0995C150.116 66.9194 161.713 76.4731 178.132 76.4731C185.995 76.4731 193.192 73.7519 198.398 68.8108C203.403 64.0589 206.16 57.6571 206.16 50.7847C206.16 43.9122 203.403 37.5104 198.397 32.7585C193.192 27.8175 185.995 25.0962 178.132 25.0962C167.272 25.0962 158.082 29.0934 146.411 38.8935C144.288 40.6753 141.582 41.6567 138.792 41.6567C135.67 41.6567 132.736 40.4658 130.531 38.3027L120.874 28.8328L124.267 25.7369C140.687 10.7604 156.13 0.785279 178.132 0.785279C207.75 0.785279 230.951 22.7476 230.951 50.7853C230.952 78.8211 207.751 100.783 178.133 100.783Z" fill="url(#paint1_linear_1765_226)"/>
<path d="M138.794 41.6553C141.584 41.6553 144.29 40.6745 146.412 38.8922C158.083 29.092 167.274 25.0948 178.134 25.0948C185.997 25.0948 193.194 27.8161 198.399 32.7572C203.393 37.4986 206.148 43.8819 206.161 50.7359C206.236 51.7604 206.199 52.6827 206.022 53.4461C212.749 24.4978 185.981 -8.79441 147.953 8.24355L147.952 8.24417C147.45 8.50848 146.95 8.78017 146.451 9.0568C146.435 9.06604 146.419 9.07466 146.402 9.0839C145.918 9.35375 145.436 9.62914 144.956 9.9107C144.924 9.92918 144.893 9.94766 144.861 9.96614C144.393 10.2409 143.926 10.5219 143.461 10.8077C143.418 10.8342 143.375 10.8607 143.331 10.8872C142.878 11.1669 142.426 11.4522 141.975 11.7417C141.919 11.7774 141.863 11.8132 141.807 11.8495C141.368 12.1329 140.931 12.4213 140.494 12.7139C140.426 12.7595 140.358 12.8051 140.289 12.8513C139.865 13.1378 139.44 13.4286 139.017 13.7237C138.937 13.7797 138.856 13.8364 138.776 13.8925C138.365 14.1814 137.954 14.4734 137.543 14.7704C137.451 14.8369 137.359 14.9047 137.267 14.9719C136.869 15.2621 136.471 15.5553 136.074 15.8529C135.968 15.9324 135.863 16.0124 135.757 16.0919C135.373 16.3809 134.99 16.6723 134.608 16.9686C134.485 17.0635 134.362 17.1602 134.239 17.2557C133.873 17.5416 133.506 17.8287 133.14 18.1207C133.001 18.2316 132.862 18.3443 132.722 18.4565C132.372 18.7374 132.023 19.019 131.673 19.3054C131.512 19.4373 131.351 19.5716 131.19 19.7047C130.861 19.9764 130.531 20.2487 130.203 20.5247C130.014 20.683 129.826 20.8444 129.637 21.004C129.336 21.2597 129.034 21.5147 128.733 21.7741C128.503 21.9713 128.274 22.1721 128.045 22.3711C127.78 22.6009 127.517 22.8289 127.252 23.0611C126.969 23.3094 126.686 23.5626 126.403 23.814C126.19 24.0037 125.977 24.1904 125.764 24.382C125.265 24.8281 124.767 25.2791 124.268 25.7343L120.874 28.8302L130.531 38.3001C132.738 40.4644 135.671 41.6553 138.794 41.6553Z" fill="url(#paint2_linear_1765_226)"/>
<path d="M97.61 59.5775C92.1455 61.4812 80.0724 65.7014 71.7588 68.6075L74.0607 70.8649C67.3271 74.7192 60.9038 76.4719 53.77 76.4719C45.9075 76.4719 38.7109 73.7507 33.5052 68.8102C28.9127 64.4502 26.22 58.7008 25.8054 52.4746H0.995117C1.90859 79.6972 24.7518 100.783 53.77 100.783C66.1039 100.783 81.6041 98.3018 103.049 79.8974C105.147 78.0959 106.404 75.493 106.497 72.7557C106.59 70.0104 105.508 67.323 103.529 65.3817L97.61 59.5775Z" fill="url(#paint3_linear_1765_226)"/>
<path d="M103.529 65.3822L83.2311 45.4775C80.1464 42.4525 76.0458 40.7866 71.6838 40.7866H43.3887L68.1794 65.0981L74.0605 70.8654C84.1753 80.7844 85.1617 93.1974 74.1089 97.5482C79.5081 95.6925 85.4218 92.8105 91.9493 88.4079L91.9543 88.4128C95.4688 86.0421 99.1597 83.2346 103.048 79.8972C105.146 78.0958 106.403 75.4928 106.496 72.7555C106.59 70.0108 105.508 67.3235 103.529 65.3822Z" fill="url(#paint4_linear_1765_226)"/>
<path d="M206.927 92.9179C191.788 100.961 175.431 91.9125 162.443 79.1761C149.417 66.4027 133.811 51.099 133.811 51.099L119.113 36.685C101.109 19.0352 82.4916 0.78418 53.7711 0.78418C43.067 0.78418 33.2097 3.6644 24.9746 8.65165C45.0893 -2.78852 61.8498 14.9228 73.5503 26.3969C85.3017 37.9208 98.4253 50.7903 98.4253 50.7903C98.4253 50.7903 98.4316 50.7996 98.4328 50.8014L112.793 64.8834C130.797 82.5331 149.414 100.784 178.135 100.784C188.836 100.784 198.692 97.904 206.927 92.9179Z" fill="url(#paint5_linear_1765_226)"/>
<defs>
<linearGradient id="paint0_linear_1765_226" x1="0.951549" y1="50.7836" x2="230.952" y2="50.7836" gradientUnits="userSpaceOnUse">
<stop stop-color="#FFDE3E"/>
<stop offset="0.25" stop-color="#FF793E"/>
<stop offset="0.5" stop-color="#FF31FA"/>
<stop offset="0.751" stop-color="#8733FF"/>
<stop offset="1" stop-color="#221DFF"/>
</linearGradient>
<linearGradient id="paint1_linear_1765_226" x1="0.951549" y1="50.7836" x2="230.952" y2="50.7836" gradientUnits="userSpaceOnUse">
<stop stop-color="#FFDE3E"/>
<stop offset="0.25" stop-color="#FF793E"/>
<stop offset="0.5" stop-color="#FF31FA"/>
<stop offset="0.751" stop-color="#8733FF"/>
<stop offset="1" stop-color="#221DFF"/>
</linearGradient>
<linearGradient id="paint2_linear_1765_226" x1="99.5371" y1="28.5269" x2="201.367" y2="28.5269" gradientUnits="userSpaceOnUse">
<stop offset="0.21" stop-color="#FF31FA"/>
<stop offset="0.5859" stop-color="#8733FF"/>
<stop offset="0.7322" stop-color="#5927BB"/>
<stop offset="0.8548" stop-color="#371E88"/>
<stop offset="0.9473" stop-color="#22196A"/>
<stop offset="0.999" stop-color="#1A175E"/>
</linearGradient>
<linearGradient id="paint3_linear_1765_226" x1="11.3658" y1="76.629" x2="116.874" y2="76.629" gradientUnits="userSpaceOnUse">
<stop offset="0.1404" stop-color="#FF31FA" stop-opacity="0"/>
<stop offset="0.4275" stop-color="#8733FF"/>
<stop offset="0.5457" stop-color="#5927BB"/>
<stop offset="0.6446" stop-color="#371E88"/>
<stop offset="0.7193" stop-color="#22196A"/>
<stop offset="0.7611" stop-color="#1A175E"/>
</linearGradient>
<linearGradient id="paint4_linear_1765_226" x1="95.6161" y1="85.9713" x2="29.5491" y2="27.2518" gradientUnits="userSpaceOnUse">
<stop stop-color="#221DFF"/>
<stop offset="0.3213" stop-color="#8733FF"/>
<stop offset="0.8151" stop-color="#FF31FA"/>
<stop offset="0.9677" stop-color="#FF793E"/>
<stop offset="1" stop-color="#FFDE3E"/>
</linearGradient>
<linearGradient id="paint5_linear_1765_226" x1="193.016" y1="105.244" x2="48.0298" y2="-1.29731" gradientUnits="userSpaceOnUse">
<stop offset="0.003" stop-color="#1D254F"/>
<stop offset="0.0504" stop-color="#292658"/>
<stop offset="0.1352" stop-color="#48276F"/>
<stop offset="0.2476" stop-color="#7A2A95"/>
<stop offset="0.3818" stop-color="#BE2EC9"/>
<stop offset="0.4975" stop-color="#FF31FA"/>
<stop offset="1" stop-color="#FFDE3E"/>
</linearGradient>
</defs>
</svg>
